%
M48
M71
T01C0.600
T02C0.800
T03C0.813
T04C1.016
T05C1.118
T06C1.300
%
T01
X0Y0
X6588Y3889
X7620Y9049
X3492Y10795
X7461Y11668
X3492Y13335
X6032Y18415
X8255Y20638
X6032Y22701
X3492Y23495
X6429Y25162
X3492Y26035
X0Y28019
X11668Y26670
X12859Y24924
X19129Y23418
X20399Y21431
X16828Y19844
X17701Y14287
X9525Y13970
X13414Y8969
X21114Y8096
X24606Y1905
X18574Y3334
X14129Y3334
X27781Y5398
X44291Y3175
X42902Y1468
X44291Y5715
X51991Y0
X43259Y17621
X33099Y17621
X51991Y28019
T02
X34290Y22225
X34290Y19685
X24130Y22225
X24130Y19685
T03
X34964Y3452
X34964Y5992
X22542Y3651
X22542Y24130
X22542Y6191
X22542Y26670
T04
X3492Y20955
X3492Y5715
X3492Y3175
X3492Y15875
X3492Y18415
X40640Y3175
X40640Y5715
T05
X33179Y25241
X43339Y25241
T06
X48761Y18912
X48761Y23992
M30
